<?xml version="1.0" standalone="no"?>
<!DOCTYPE svg PUBLIC "-//W3C//DTD SVG 20010904//EN"
 "http://www.w3.org/TR/2001/REC-SVG-20010904/DTD/svg10.dtd">
<svg version="1.0" xmlns="http://www.w3.org/2000/svg"
 width="270.000000pt" height="270.000000pt" viewBox="0 0 270.000000 270.000000"
 preserveAspectRatio="xMidYMid meet">
<metadata>
Created by potrace 1.14, written by Peter Selinger 2001-2017
</metadata>
<g transform="translate(0.000000,270.000000) scale(0.100000,-0.100000)"
fill="#000000" stroke="none">
<path d="M41 2519 c-1 -111 1 -139 11 -133 10 6 11 5 1 -8 -16 -19 -18 -1414
-2 -1423 5 -4 9 -12 9 -18 0 -8 -3 -7 -9 2 -6 9 -9 -58 -10 -170 0 -118 3
-178 9 -169 6 9 10 10 10 3 0 -6 -5 -15 -10 -18 -6 -3 -10 -15 -10 -26 0 -14
4 -18 13 -13 9 6 9 4 1 -7 -15 -19 -16 -180 -1 -198 9 -12 9 -13 0 -7 -8 4
-13 1 -13 -9 0 -10 5 -13 13 -9 9 6 9 4 1 -7 -6 -8 -12 -63 -13 -126 -2 -90 1
-116 13 -128 13 -14 92 -15 643 -14 463 0 632 4 642 12 11 9 13 9 8 0 -11 -17
1190 -18 1211 0 13 9 14 9 8 0 -5 -10 5 -13 43 -13 l50 0 0 622 c0 473 -3 625
-12 637 -9 12 -9 13 1 7 18 -11 18 434 0 453 -10 10 -10 12 -1 7 17 -10 17
335 0 346 -9 6 -9 8 1 8 16 0 15 179 -1 199 -9 12 -9 13 1 7 9 -5 12 3 12 29
0 20 -4 34 -8 31 -5 -3 -9 1 -9 9 0 8 4 12 8 9 9 -5 11 220 2 242 -4 11 -238
13 -1308 13 l-1302 0 -2 -140z"/>
</g>
</svg>
